<svg width="813" height="798" viewBox="0 0 813 798" fill="none" xmlns="http://www.w3.org/2000/svg">
<path d="M404.732 1.1331C394.065 2.59976 386.865 6.59976 378.198 15.7998C367.665 26.8664 364.198 34.0664 360.998 51.1331C358.465 65.5331 352.598 106.333 350.998 121.666C350.598 126.066 347.798 136.6 344.998 145C342.198 153.4 339.132 165.266 338.198 171.266C336.998 180.333 336.065 183.133 332.732 186.6C330.598 189 324.465 197.533 319.132 205.666C299.398 235.266 292.199 241.533 269.532 249C248.198 256.066 236.332 266.066 228.198 283.533C213.932 314.2 210.332 318.733 187.265 336.2C170.998 348.466 138.598 379.666 121.398 399.533C104.732 418.733 96.7318 437.533 98.8652 451.933C100.065 459.666 104.065 464.866 107.265 462.866C109.532 461.533 110.598 458.866 114.198 445.4C116.198 438.2 121.132 432.2 124.065 433.4C125.798 434.066 126.332 435.933 126.332 441.533C126.332 447.666 126.732 449 128.998 449.666C130.465 450.066 132.198 450.2 132.865 449.666C135.132 448.333 139.665 434.6 141.132 424.6C143.665 407.4 143.665 407.266 159.132 397.266C166.732 392.333 178.332 385.266 184.598 381.666C193.665 376.466 200.998 370.466 216.732 355.266C240.598 332.333 249.798 325 254.865 325C262.599 325 268.998 330.466 278.732 345.666C285.665 356.466 298.598 382.066 300.998 389.4C302.865 395.533 302.865 395.533 316.598 385.8C322.332 381.8 330.865 375.8 335.665 372.466C340.465 369.133 348.332 363.933 353.398 360.866L362.332 355.4V338.466C362.332 329.266 363.265 314.2 364.332 305C367.132 281.4 366.865 259.133 363.665 243.666C360.065 226.6 360.332 223.8 365.798 208.333C372.598 189.4 375.532 178.066 377.132 164.333C377.798 157.666 379.665 148.466 380.998 143.8C384.198 133.666 384.598 107.533 382.198 74.1998C380.598 53.6664 380.732 53.1331 383.532 47.1331C386.332 41.5331 397.132 30.3331 399.798 30.3331C400.465 30.3331 400.998 31.6664 400.998 33.3998C400.998 35.1331 403.665 42.0664 406.998 48.9998C410.332 55.7998 415.132 66.4664 417.798 72.7331C424.732 89.3998 428.332 96.0664 439.798 113.266C449.532 127.933 454.065 136.066 456.332 143.4C457.265 146.466 457.132 146.466 453.265 144.466L449.398 142.466L446.598 148.733C443.665 155.266 434.465 180.466 431.665 189.666C430.865 192.6 422.332 218.733 412.732 247.666C403.265 276.6 391.532 313.133 386.865 328.866C382.065 344.466 377.265 358.866 376.065 360.6C373.398 364.733 358.065 376.333 333.665 392.733C308.998 409.266 302.332 412.6 302.332 408.466C302.332 406.6 299.798 406.333 283.798 406.333C266.332 406.333 258.732 407.533 256.998 410.466C256.465 411.133 256.598 415.4 257.265 420.066C257.798 424.6 258.998 435.533 259.798 444.333C261.532 462.2 264.199 469.133 270.465 471.8C276.199 474.066 288.998 472.733 294.598 469.266L299.398 466.333L300.332 446.466C300.865 435.666 301.665 426.066 302.198 425.133C304.332 421.8 307.665 427.133 309.665 437C311.932 448.2 320.065 461.666 324.465 461.666C328.865 461.666 343.932 433.933 364.998 387.4C374.065 367.266 375.932 364.6 378.198 368.866C378.998 370.333 379.665 372.6 379.665 373.8C379.665 378.333 366.065 419 361.398 428.333C355.932 439.4 341.798 462.733 337.398 468.066C333.265 473.266 333.532 475.666 338.865 480.733C344.332 485.8 345.132 485.933 348.465 482.066C351.265 479 386.598 455.533 402.065 446.466C407.265 443.4 411.665 440.333 411.665 439.533C411.665 436.6 398.998 395.266 394.198 382.466C387.665 364.866 387.532 361.133 394.065 351.666C396.865 347.4 400.598 339 402.732 332.333C404.732 325.666 408.198 314.866 410.465 308.333C412.732 301.666 415.665 292.333 416.998 287.4C418.198 282.6 420.865 274.466 422.732 269.4C424.598 264.466 428.998 251.266 432.332 240.333C435.798 229.266 443.132 206.2 448.732 189C454.198 171.8 458.865 155.8 458.865 153.533V149.4L463.398 154.866C472.198 165.4 486.865 185.8 492.598 195.4C495.798 200.866 502.065 210.066 506.465 216.066C517.532 231 526.465 236.2 571.932 254.333C591.932 262.333 610.199 269.933 612.599 271.133C617.665 273.8 619.265 277.266 620.999 290.333C623.532 308.6 626.465 322.6 629.265 328.866C631.665 334.466 632.065 334.733 633.132 332.066C636.199 324.066 648.999 255.533 648.999 246.866C648.999 244.733 647.665 243.666 643.399 242.466C630.065 238.6 571.532 214.066 567.799 210.866C566.599 209.8 557.799 154.866 556.732 141C556.465 137.4 555.665 136.2 552.999 135.4C551.132 134.866 537.665 131.4 522.998 127.666C508.332 123.933 488.732 118.333 479.398 115.266L462.332 109.8V104.866C462.332 96.3331 463.665 96.1998 488.598 100.333C503.398 102.733 518.065 106.2 532.865 111C544.998 114.733 558.999 119 563.799 120.2L572.599 122.6L578.199 157.133C581.399 176.2 584.332 193.266 584.865 195.133C585.932 199 595.799 203.666 644.332 223.266C658.332 228.866 669.932 233.666 670.199 233.8C670.465 234.066 668.065 247.933 664.999 264.6C651.932 335.133 652.199 331.8 659.399 335.666C662.065 337.133 671.532 343.4 680.332 349.533C698.465 362.333 719.265 375.533 726.732 379.133C733.665 382.466 733.799 380.866 722.599 434.333C719.532 448.6 715.265 468.066 712.999 477.666C710.732 487.133 707.132 503.666 704.999 514.333C702.732 525 697.932 542.333 694.332 553C690.599 563.666 686.599 576.2 685.132 581C679.932 599.533 665.932 643.4 662.732 651.266C659.799 658.6 658.999 659.666 655.799 659.666C649.132 659.666 648.465 658.2 650.199 648.466C650.999 643.666 653.132 634.733 654.865 628.733C662.599 602.2 678.465 537.666 688.199 493.666C689.932 485.533 694.199 467.933 697.665 454.333C700.999 440.733 704.599 423.4 705.665 415.666C706.732 407.933 708.332 399.666 709.265 397.266C711.265 391.933 711.799 392.466 692.332 380.333C679.799 372.466 656.599 357.133 646.732 350.066C643.932 348.066 639.932 346.066 637.799 345.533C634.065 344.6 634.065 344.6 634.865 349.8C635.665 354.466 634.999 356.333 628.599 367C624.599 373.666 619.399 384.066 616.999 390.333C614.599 396.6 608.732 410.6 603.932 421.666C599.265 432.6 592.465 448.866 589.132 457.666C574.199 495.8 567.132 510.466 565.532 506.733C565.132 505.933 563.132 502.733 560.865 499.8C557.799 495.4 553.665 492.733 539.665 485.666C518.198 474.866 517.532 474.066 518.865 455.933C519.398 449 522.065 427.666 524.865 408.6C533.132 353.4 533.132 349.933 525.398 338.066C519.932 329.933 511.665 325.8 501.132 325.933C487.532 326.066 440.332 341 413.398 353.666L401.132 359.4L403.132 366.6C409.932 390.2 422.865 431.133 423.798 432.2C424.465 433 426.598 432.333 429.265 430.333C438.065 424.066 471.798 395.266 475.132 391.266C476.865 389.133 478.865 387.666 479.265 388.2C479.665 388.6 480.598 394.466 481.132 401.266C481.665 408.066 483.398 421.8 484.998 431.666C488.065 451 489.132 479.933 487.132 491.133C486.198 496.466 486.465 498.733 488.198 502.066C491.532 508.466 495.798 509.933 512.998 510.6C527.398 511.133 529.132 511.533 541.665 516.866C548.998 520.066 556.065 523.666 557.532 524.866C560.732 527.666 559.932 533.133 553.799 552.066C551.265 559.933 547.532 574.333 545.665 584.066C543.798 593.666 538.998 611.8 534.998 624.333C531.132 636.733 526.598 652.333 524.998 659C521.665 672.733 518.465 679.533 514.465 682.066C510.732 684.2 487.132 703.933 480.065 710.866C476.865 713.8 474.332 715.933 474.332 715.533C474.332 715.133 478.332 706.2 483.132 695.533C487.932 685 494.465 670.333 497.665 663C500.865 655.666 505.265 645.4 507.665 640.333C509.932 635.133 513.265 627.4 514.998 622.866C516.598 618.466 519.398 612.2 520.998 609.133C522.598 605.933 523.532 603.133 523.132 602.733C522.465 601.933 504.865 610.6 499.665 614.333C497.798 615.666 493.398 618.066 489.665 619.8C486.065 621.4 476.465 626.733 468.598 631.4C460.732 636.066 446.865 643 437.932 646.6C408.465 658.6 409.132 657.933 393.665 685.666C389.132 693.666 378.332 711.133 369.665 724.333C360.998 737.533 352.598 750.6 350.732 753.4C345.532 761.666 343.265 761.933 325.265 757.8C276.998 746.733 229.532 726.066 193.665 700.333C162.332 678.2 139.532 657.133 116.598 629.666C95.2652 604.066 81.9318 584.733 74.0652 567.8C71.1318 561.533 66.9985 552.466 64.7318 547.666C50.8652 517.8 43.2652 492.2 37.5318 456.333C34.1985 436.066 33.7985 430.2 33.7985 400.333C33.7985 372.333 34.3318 363.933 36.8652 347.666C42.3318 312.066 53.5318 274.866 66.7318 248.066C71.3985 238.733 75.9318 228.866 76.9985 226.333C77.9318 223.8 80.0652 219.8 81.6652 217.666C83.2652 215.4 88.0652 207.933 92.3318 201C101.665 185.666 122.332 158.466 134.198 145.933C162.332 116.2 202.465 87.5331 244.732 67.3998C270.599 54.9998 299.665 44.1998 317.798 40.3331L328.598 38.0664L332.865 21.1331C335.132 11.9331 336.998 3.9331 336.998 3.26643C336.998 2.06643 335.798 2.3331 308.332 9.79976C277.532 18.0664 269.265 20.9998 247.665 30.7331C181.932 60.7331 133.932 95.3998 96.8652 139.666C78.7318 161.4 56.7318 194.866 44.5985 219.133C23.3985 261.533 12.3318 295.4 4.19848 341.666C0.731817 361.8 0.46515 365.4 0.46515 403.666C0.331817 443 0.46515 445 4.06515 463.666C14.3318 516.466 28.7318 554.466 54.7318 598.333C77.7985 637.133 118.732 682.2 157.665 711.8C200.865 744.6 229.132 760.733 266.999 774.066C292.465 783.133 301.532 785.4 331.665 791C393.132 802.466 458.598 799.533 518.732 782.866C549.398 774.466 564.199 768.733 591.532 755.133C639.665 731 680.865 697.933 717.132 654.6C768.865 592.466 794.999 535.4 809.132 453C812.599 432.2 814.199 384.333 811.799 367.4C805.399 322.6 792.465 274.466 777.665 240.6C770.199 223.666 750.599 189.133 738.732 172.066C703.799 121.666 647.665 71.6664 595.665 44.7331C554.999 23.6664 519.398 11.6664 479.398 5.66643C442.465 0.0664297 420.732 -1.2669 404.732 1.1331Z" fill="black"/>
<path d="M252.598 164.333C244.465 166.466 234.598 174.733 230.465 182.866C226.065 191.533 225.931 205.933 229.931 213.666C233.665 220.733 240.598 227.533 246.331 230.066C253.131 232.866 265.665 232.466 274.465 229.133C287.131 224.333 299.931 210.733 306.865 194.6C309.398 189.133 309.398 188.866 306.865 186.2C305.531 184.6 300.865 181.666 296.598 179.533C292.465 177.4 285.798 173.666 281.931 171.266C269.798 163.533 262.331 161.8 252.598 164.333Z" fill="black"/>
<path d="M403.664 463.8C396.731 468.066 386.864 474.2 381.797 477.4C369.397 485 359.664 492.733 359.664 494.733C359.664 497 366.597 505.4 380.864 520.333C387.264 526.866 393.797 533.933 395.397 535.8L398.331 539.266L390.997 544.333C377.264 553.8 365.664 569.133 348.464 600.333C342.864 610.6 336.197 620.866 333.797 623.133C329.664 627.133 320.197 630.333 312.864 630.333C309.131 630.333 303.664 636.2 303.664 640.333C303.664 642.333 305.397 648.2 307.531 653.4C312.864 666.333 314.064 671.266 315.531 687.8C316.997 703.133 317.531 705.266 321.397 710.733C323.397 713.666 324.864 714.333 328.064 714.066C336.197 713.266 340.464 702.066 344.331 671.133C346.997 650.6 349.531 645.8 366.197 630.466C384.331 613.933 399.664 600.733 415.797 587.666C434.997 572.066 446.197 561.266 449.131 555.4C452.597 548.733 452.331 541.8 448.197 527.266C442.597 507.133 420.997 457 417.664 456.2C416.997 455.933 410.597 459.4 403.664 463.8Z" fill="black"/>
</svg>
