<?xml version="1.0" standalone="no"?>
<!DOCTYPE svg PUBLIC "-//W3C//DTD SVG 20010904//EN"
 "http://www.w3.org/TR/2001/REC-SVG-20010904/DTD/svg10.dtd">
<svg version="1.0" xmlns="http://www.w3.org/2000/svg"
 width="270.000000pt" height="270.000000pt" viewBox="0 0 270.000000 270.000000"
 preserveAspectRatio="xMidYMid meet">

<g transform="translate(0.000000,270.000000) scale(0.100000,-0.100000)"
fill="#000000" stroke="none">
<path d="M1900 2502 c-85 -77 -85 -77 -155 -231 l-70 -155 -95 -36 c-109 -42
-90 -20 -267 -308 -58 -95 -110 -175 -114 -177 -4 -3 -15 30 -24 73 -9 42 -36
160 -59 262 l-41 185 -218 3 c-205 2 -218 1 -213 -15 6 -20 387 -1732 430
-1933 l12 -55 216 -3 216 -2 22 92 c119 522 266 1204 260 1206 -8 3 -130 -64
-146 -81 -6 -7 -38 -86 -72 -177 -33 -91 -100 -271 -148 -400 l-87 -235 22
-97 c12 -54 19 -103 15 -110 -4 -7 -3 -8 4 -4 7 4 12 1 12 -6 1 -7 4 -32 9
-55 l8 -41 -132 -1 -133 -2 -16 73 c-10 40 -28 123 -41 183 -13 61 -33 151
-45 200 -11 50 -33 151 -49 225 -27 124 -141 636 -176 790 -60 265 -75 334
-75 351 0 18 8 19 130 19 79 0 130 -4 131 -10 1 -5 2 -13 4 -17 13 -48 71
-312 110 -496 18 -87 35 -161 38 -164 4 -3 59 44 125 104 90 84 130 114 168
127 69 23 268 186 300 246 14 25 76 145 139 267 104 201 118 233 141 335 13
62 27 121 30 131 5 14 -1 17 -38 17 -40 -1 -50 -7 -128 -78z"/>
<path d="M1865 1928 l-90 -173 -117 -95 -116 -95 -18 -115 -18 -115 -139 -142
-138 -141 15 -74 c8 -40 24 -111 35 -158 11 -47 23 -103 27 -124 3 -21 9 -48
14 -60 10 -25 -9 -69 160 383 83 221 135 348 147 355 10 6 58 34 108 61 l90
50 67 300 c37 165 66 303 65 308 -1 4 -43 -70 -92 -165z"/>
<path d="M1443 1522 c-17 -9 -83 -64 -146 -122 -104 -95 -138 -142 -116 -155
4 -3 11 -27 15 -53 14 -94 9 -95 140 42 l120 125 15 86 c9 47 12 88 9 90 -4 2
-21 -3 -37 -13z"/>
</g>
</svg>
