<?xml version="1.0" standalone="no"?>
<!DOCTYPE svg PUBLIC "-//W3C//DTD SVG 20010904//EN"
 "http://www.w3.org/TR/2001/REC-SVG-20010904/DTD/svg10.dtd">
<svg version="1.0" xmlns="http://www.w3.org/2000/svg"
 width="1024.000000pt" height="1024.000000pt" viewBox="0 0 1024.000000 1024.000000"
 preserveAspectRatio="xMidYMid meet">

<g transform="translate(0.000000,1024.000000) scale(0.100000,-0.100000)"
fill="#000000" stroke="none">
<path d="M5488 8559 c-80 -11 -134 -41 -199 -110 -79 -83 -105 -137 -129 -265
-19 -108 -63 -414 -75 -529 -3 -33 -24 -112 -45 -175 -21 -63 -44 -152 -51
-197 -9 -68 -16 -89 -41 -115 -16 -18 -62 -82 -102 -143 -148 -222 -202 -269
-372 -325 -160 -53 -249 -128 -310 -259 -107 -230 -134 -264 -307 -395 -122
-92 -365 -326 -494 -475 -125 -144 -185 -285 -169 -393 9 -58 39 -97 63 -82
17 10 25 30 52 131 15 54 52 99 74 90 13 -5 17 -19 17 -61 0 -46 3 -56 20 -61
11 -3 24 -4 29 0 17 10 51 113 62 188 19 129 19 130 135 205 57 37 144 90 191
117 68 39 123 84 241 198 179 172 248 227 286 227 58 0 106 -41 179 -155 52
-81 149 -273 167 -328 14 -46 14 -46 117 27 43 30 107 75 143 100 36 25 95 64
133 87 l67 41 0 127 c0 69 7 182 15 251 21 177 19 344 -5 460 -27 128 -25 149
16 265 51 142 73 227 85 330 5 50 19 119 29 154 24 76 27 272 9 522 -12 154
-11 158 10 203 21 42 102 126 122 126 5 0 9 -10 9 -23 0 -13 20 -65 45 -117
25 -51 61 -131 81 -178 52 -125 79 -175 165 -304 73 -110 107 -171 124 -226 7
-23 6 -23 -23 -8 l-29 15 -21 -47 c-22 -49 -91 -238 -112 -307 -6 -22 -70
-218 -142 -435 -71 -217 -159 -491 -194 -609 -36 -117 -72 -225 -81 -238 -20
-31 -135 -118 -318 -241 -185 -124 -235 -149 -235 -118 0 14 -19 16 -139 16
-131 0 -188 -9 -201 -31 -4 -5 -3 -37 2 -72 4 -34 13 -116 19 -182 13 -134 33
-186 80 -206 43 -17 139 -7 181 19 l36 22 7 149 c4 81 10 153 14 160 16 25 41
-15 56 -89 17 -84 78 -185 111 -185 33 0 146 208 304 557 68 151 82 171 99
139 6 -11 11 -28 11 -37 0 -34 -102 -339 -137 -409 -41 -83 -147 -258 -180
-298 -31 -39 -29 -57 11 -95 41 -38 47 -39 72 -10 21 23 286 199 402 267 39
23 72 46 72 52 0 22 -95 332 -131 428 -49 132 -50 160 -1 231 21 32 49 95 65
145 15 50 41 131 58 180 17 50 39 120 49 157 9 36 29 97 43 135 14 37 47 136
72 218 26 83 81 256 123 385 41 129 76 249 76 266 l0 31 34 -41 c66 -79 176
-232 219 -304 24 -41 71 -110 104 -155 83 -112 150 -151 491 -287 150 -60 287
-117 305 -126 38 -20 50 -46 63 -144 19 -137 41 -242 62 -289 18 -42 21 -44
29 -24 23 60 119 574 119 639 0 16 -10 24 -42 33 -100 29 -539 213 -567 237
-9 8 -75 420 -83 524 -2 27 -8 36 -28 42 -14 4 -115 30 -225 58 -110 28 -257
70 -327 93 l-128 41 0 37 c0 64 10 65 197 34 111 -18 221 -44 332 -80 91 -28
196 -60 232 -69 l66 -18 42 -259 c24 -143 46 -271 50 -285 8 -29 82 -64 446
-211 105 -42 192 -78 194 -79 2 -2 -16 -106 -39 -231 -98 -529 -96 -504 -42
-533 20 -11 91 -58 157 -104 136 -96 292 -195 348 -222 52 -25 53 -13 -31
-414 -23 -107 -55 -253 -72 -325 -17 -71 -44 -195 -60 -275 -17 -80 -53 -210
-80 -290 -28 -80 -58 -174 -69 -210 -39 -139 -144 -468 -168 -527 -22 -55 -28
-63 -52 -63 -50 0 -55 11 -42 84 6 36 22 103 35 148 58 199 177 683 250 1013
13 61 45 193 71 295 25 102 52 232 60 290 8 58 20 120 27 138 15 40 19 36
-127 127 -94 59 -268 174 -342 227 -21 15 -51 30 -67 34 -28 7 -28 7 -22 -32
6 -35 1 -49 -47 -129 -30 -50 -69 -128 -87 -175 -18 -47 -62 -152 -98 -235
-35 -82 -86 -204 -111 -270 -112 -286 -165 -396 -177 -368 -3 6 -18 30 -35 52
-23 33 -54 53 -159 106 -161 81 -166 87 -156 223 4 52 24 212 45 355 62 414
62 440 4 529 -41 61 -103 92 -182 91 -102 -1 -456 -113 -658 -208 l-92 -43 15
-54 c51 -177 148 -484 155 -492 5 -6 21 -1 41 14 66 47 319 263 344 293 13 16
28 27 31 23 3 -3 10 -47 14 -98 4 -51 17 -154 29 -228 23 -145 31 -362 16
-446 -7 -40 -5 -57 8 -82 25 -48 57 -59 186 -64 108 -4 121 -7 215 -47 55 -24
108 -51 119 -60 24 -21 18 -62 -28 -204 -19 -59 -47 -167 -61 -240 -14 -72
-50 -208 -80 -302 -29 -93 -63 -210 -75 -260 -25 -103 -49 -154 -79 -173 -28
-16 -205 -164 -258 -216 -24 -22 -43 -38 -43 -35 0 3 30 70 66 150 36 79 85
189 109 244 24 55 57 132 75 170 17 39 42 97 55 131 12 33 33 80 45 103 12 24
19 45 16 48 -5 6 -137 -59 -176 -87 -14 -10 -47 -28 -75 -41 -27 -12 -99 -52
-158 -87 -59 -35 -163 -87 -230 -114 -221 -90 -216 -85 -332 -293 -34 -60
-115 -191 -180 -290 -65 -99 -128 -197 -142 -218 -39 -62 -56 -64 -191 -33
-362 83 -718 238 -987 431 -235 166 -406 324 -578 530 -160 192 -260 337 -319
464 -22 47 -53 115 -70 151 -104 224 -161 416 -204 685 -25 152 -28 196 -28
420 0 210 4 273 23 395 41 267 125 546 224 747 35 70 69 144 77 163 7 19 23
49 35 65 12 17 48 73 80 125 70 115 225 319 314 413 211 223 512 438 829 589
194 93 412 174 548 203 l81 17 32 127 c17 69 31 129 31 134 0 9 -9 7 -215 -49
-231 -62 -293 -84 -455 -157 -493 -225 -853 -485 -1131 -817 -136 -163 -301
-414 -392 -596 -159 -318 -242 -572 -303 -919 -26 -151 -28 -178 -28 -465 -1
-295 0 -310 27 -450 77 -396 185 -681 380 -1010 173 -291 480 -629 772 -851
324 -246 536 -367 820 -467 191 -68 259 -85 485 -127 461 -86 952 -64 1403 61
230 63 341 106 546 208 361 181 670 429 942 754 388 466 584 894 690 1512 26
156 38 515 20 642 -48 336 -145 697 -256 951 -56 127 -203 386 -292 514 -262
378 -683 753 -1073 955 -305 158 -572 248 -872 293 -277 42 -440 52 -560 34z"/>
<path d="M4347 7335 c-61 -16 -135 -78 -166 -139 -33 -65 -34 -173 -4 -231 28
-53 80 -104 123 -123 51 -21 145 -18 211 7 95 36 191 138 243 259 19 41 19 43
0 63 -10 12 -45 34 -77 50 -31 16 -81 44 -110 62 -91 58 -147 71 -220 52z"/>
<path d="M5480 5089 c-52 -32 -126 -78 -164 -102 -93 -57 -166 -115 -166 -130
0 -17 52 -80 159 -192 48 -49 97 -102 109 -116 l22 -26 -55 -38 c-103 -71
-190 -186 -319 -420 -42 -77 -92 -154 -110 -171 -31 -30 -102 -54 -157 -54
-28 0 -69 -44 -69 -75 0 -15 13 -59 29 -98 40 -97 49 -134 60 -258 11 -115 15
-131 44 -172 15 -22 26 -27 50 -25 61 6 93 90 122 322 20 154 39 190 164 305
136 124 251 223 372 321 144 117 228 198 250 242 26 50 24 102 -7 211 -42 151
-204 527 -229 533 -5 2 -53 -24 -105 -57z"/>
</g>
</svg>
